PathFileType	4	(X/Y/Z)	A12_1_OpenSim.trc																																																																																																																						
DataRate	CameraRate	NumFrames	NumMarkers	Units	OrigDataRate	OrigDataStartFrame	OrigNumFrames																																																																																																																		
100	100	9	40	mm	100	1876	3000																																																																																																																		
Frame#	Time	R.ASIS			R.PSIS			S2			L.PSIS			L.ASIS			R.TH1			R.TH2			R.TH3			R.MKnee			R.Knee			R.SH1			R.SH2			R.SH3			R.SH4			R.Ankle			R.MAnkle			R.Heel			R.MT5			R.MT1			L.TH1			L.TH2			L.TH3			L.TH4			L.MKnee			L.Knee			L.SH1			L.SH2			L.SH3			L.Ankle			L.MAnkle			L.Heel			L.MT5			L.MT1			R.Acr			L.Acr			C7			T10			Clav			Sternum			R.Back		
		X1	Y1	Z1	X2	Y2	Z2	X3	Y3	Z3	X4	Y4	Z4	X5	Y5	Z5	X6	Y6	Z6	X7	Y7	Z7	X8	Y8	Z8	X9	Y9	Z9	X10	Y10	Z10	X11	Y11	Z11	X12	Y12	Z12	X13	Y13	Z13	X14	Y14	Z14	X15	Y15	Z15	X16	Y16	Z16	X17	Y17	Z17	X18	Y18	Z18	X19	Y19	Z19	X20	Y20	Z20	X21	Y21	Z21	X22	Y22	Z22	X23	Y23	Z23	X24	Y24	Z24	X25	Y25	Z25	X26	Y26	Z26	X27	Y27	Z27	X28	Y28	Z28	X29	Y29	Z29	X30	Y30	Z30	X31	Y31	Z31	X32	Y32	Z32	X33	Y33	Z33	X34	Y34	Z34	X35	Y35	Z35	X36	Y36	Z36	X37	Y37	Z37	X38	Y38	Z38	X39	Y39	Z39	X40	Y40	Z40
1876	18.75	968.6781	1071.3799	-392.859	777.3037	1064.3112	-483.876	770.705	1057.3999	-529.4108	771.7699	1063.0754	-579.2392	946.5335	1068.1401	-680.5302	965.3626	730.6588	-382.7484	885.0087	722.9434	-368.3275	893.257	614.4284	-386.8181	916.4382	499.7457	-521.2504	921.7554	499.0901	-404.3173	900.5987	330.9134	-407.8509	879.6556	222.6297	-429.9448	821.2085	343.8346	-390.0505	804.2567	232.52	-405.2139	779.9884	80.7737	-421.2792	821.5869	93.5596	-516.035	720.5966	41.8039	-480.8407	889.1358	38.4032	-385.8783	941.5482	37.8511	-472.066	1033.4474	803.2568	-703.9761	1074.7314	702.8181	-700.7726	958.4586	768.6348	-716.7899	1001.479	668.5383	-706.7137	1115.1389	543.4786	-584.8248	1103.467	554.1023	-698.987	1094.2459	419.2726	-719.7366	1014.2154	435.3436	-720.1594	995.1827	327.6561	-718.2894	1012.5159	118.8857	-729.0042	1043.0884	124.436	-630.6933	942.4281	88.4333	-674.5501	1112.8914	55.5929	-743.9805	1151.635	65.4002	-643.3519	911.3781	1460.1499	-374.8883	861.0533	1444.9194	-699.5731	829.8564	1494.5925	-534.6952	799.7223	1169.936	-526.6559	967.6196	1402.389	-547.2255	998.4097	1259.5872	-538.4367	764.6062	1396.7059	-437.524
1877	18.76	968.9073	1070.3412	-393.7621	777.4769	1063.7063	-484.4673	770.6353	1056.7085	-529.9195	771.9978	1062.4605	-579.8012	946.398	1067.0746	-681.494	961.9671	729.4485	-383.5212	881.589	722.817	-368.4428	888.2323	614.2106	-386.9582	909.0697	499.0982	-521.5551	914.5772	498.3465	-404.6526	891.5575	330.2369	-408.0542	869.5457	222.1508	-430.076	812.3245	344.0186	-390.246	794.1232	232.8885	-405.469	768.3371	81.2322	-421.5246	810.0168	93.6027	-516.2512	708.8119	42.3991	-480.9596	877.2119	38.373	-385.8412	929.5529	37.7083	-472.0606	1031.5282	800.8925	-705.1218	1072.094	700.2913	-701.6114	956.3058	766.7173	-717.3483	998.6893	666.3951	-707.0007	1112.7145	541.1813	-585.8842	1100.7307	551.8108	-699.6	1098.5559	417.4576	-721.0147	1017.6944	428.4944	-721.0252	1005.6132	319.8916	-719.3143	1036.8469	111.9647	-730.731	1067.1482	119.2389	-632.3441	969.1702	76.8297	-676.2405	1141.1714	55.3276	-745.7899	1179.4275	67.3704	-645.2833	911.3349	1459.2903	-375.5129	861.0741	1443.8908	-700.2745	829.8613	1493.5837	-535.3808	799.8789	1169.0378	-527.3864	967.6576	1401.4324	-547.8877	998.6158	1258.6707	-539.1347	764.6899	1395.5802	-438.1122
1878	18.77	969.2278	1069.1592	-394.7624	777.7842	1062.9509	-485.23	770.7522	1055.8495	-530.6099	772.3927	1061.6722	-580.5377	946.4677	1065.7957	-682.5726	958.6261	728.1829	-384.3356	878.249	722.6501	-368.6365	883.2853	613.9697	-387.1869	901.7314	498.4711	-521.9157	907.4435	497.5955	-405.0276	882.5418	329.5698	-408.2783	859.4607	221.672	-430.2286	803.4434	344.2477	-390.5173	783.9753	233.3215	-405.7715	756.6982	81.7418	-421.7698	798.4595	93.6913	-516.4726	697.0253	43.0634	-481.0825	865.2905	38.3533	-385.8086	917.5533	37.5774	-472.069	1029.4598	797.8972	-706.3433	1069.0957	697.038	-702.5117	953.9352	764.3166	-718.015	995.5012	663.6938	-707.3593	1109.5281	538.1965	-586.8599	1097.4415	548.8804	-700.1331	1102.235	415.5742	-722.2882	1020.8395	421.4972	-721.7682	1015.7625	312.4121	-720.211	1061.0173	106.2305	-732.2997	1090.9673	115.1524	-633.9154	996.1298	66.4688	-677.7782	1168.7775	56.4749	-747.5967	1206.5332	70.7263	-647.2501	911.3109	1458.2732	-376.192	861.1101	1442.691	-701.0495	829.8977	1492.3874	-536.1332	800.1661	1167.9651	-528.2643	967.744	1400.3361	-548.6003	998.943	1257.642	-539.9001	764.8261	1394.2382	-438.7745
1879	18.78	969.6139	1067.8389	-395.8455	778.2027	1062.0205	-486.1918	771.0709	1054.8059	-531.5173	772.9456	1060.6841	-581.4763	946.7547	1064.3181	-683.7594	955.3649	726.8565	-385.2051	875.0117	722.4322	-368.9259	878.4557	613.6942	-387.5244	894.4907	497.8483	-522.3475	900.406	496.8285	-405.4585	873.5817	328.9051	-408.5323	849.399	221.1924	-430.4286	794.6064	344.5245	-390.8733	773.8487	233.8213	-406.1199	745.0758	82.3118	-422.0128	786.9249	93.8325	-516.6959	685.2306	43.817	-481.2068	853.3779	38.3438	-385.7801	905.5569	37.4585	-472.0877	1027.3557	794.3445	-707.6479	1065.8831	693.1339	-703.4877	951.4689	761.49	-718.8412	992.0441	660.5027	-707.842	1105.6265	534.6226	-587.7534	1093.7334	545.3903	-700.5932	1105.3082	413.6352	-723.5385	1023.6838	414.4479	-722.437	1025.5291	305.3127	-720.9812	1084.699	101.704	-733.5927	1114.199	112.2493	-635.3114	1022.8773	57.49	-679.0423	1195.3423	59.0342	-749.3053	1232.5815	75.4673	-649.153	911.3144	1457.0995	-376.9386	861.1658	1441.3367	-701.901	829.9704	1491.0131	-536.9449	800.572	1166.7203	-529.301	967.8819	1399.1057	-549.3664	999.3803	1256.4983	-540.7282	765.014	1392.7012	-439.5114
1880	18.79	970.0387	1066.3811	-396.9974	778.7096	1060.8937	-487.3757	771.5839	1053.5631	-532.6675	773.656	1059.4731	-582.6415	947.2675	1062.6589	-685.0444	952.2194	725.4579	-386.1409	871.9097	722.1429	-369.3299	873.7967	613.3606	-387.9918	887.4334	497.21	-522.866	893.5408	496.028	-405.9639	864.7245	328.2328	-408.8269	839.3627	220.7175	-430.6921	785.8691	344.8545	-391.3182	763.7976	234.3861	-406.5122	733.4756	82.9564	-422.2539	775.4229	94.0352	-516.9185	673.4274	44.6817	-481.3313	841.4788	38.3427	-385.7573	893.5702	37.3541	-472.1138	1025.3463	790.3478	-709.04	1062.6169	688.703	-704.5317	949.0472	758.3237	-719.869	988.4776	656.9266	-708.4899	1101.1189	530.5979	-588.5675	1089.7703	541.4593	-700.9907	1107.8098	411.6535	-724.7493	1026.2476	407.4619	-723.0616	1034.7963	298.6744	-721.6122	1107.4844	98.3322	-734.5034	1136.4447	110.537	-636.4293	1048.9063	49.9677	-679.8984	1220.4651	62.8992	-750.8089	1257.1542	81.4806	-650.881	911.3503	1455.7686	-377.7631	861.2521	1439.8401	-702.831	830.082	1489.47	-537.8138	801.0873	1165.3026	-530.5065	968.0733	1397.7472	-550.1909	999.9163	1255.2358	-541.6163	765.2521	1390.9865	-440.3303
1881	18.8	970.4788	1064.7842	-398.2069	779.2884	1059.5587	-488.8006	772.2662	1052.1171	-534.0767	774.5196	1058.0332	-584.053	948.0113	1060.8376	-686.4136	949.2305	723.9724	-387.1521	868.9808	721.7544	-369.8685	869.3688	612.9352	-388.6067	880.6658	496.5289	-523.4869	886.9419	495.1691	-406.562	856.0335	327.5434	-409.1734	829.374	220.2654	-431.0176	777.296	345.2447	-391.8502	753.8818	235.0165	-406.9482	721.9062	83.6943	-422.4928	763.9631	94.3119	-517.1376	661.6174	45.6851	-481.4568	829.5925	38.3498	-385.7461	881.6	37.272	-472.148	1023.5681	786.0549	-710.5171	1059.4695	683.9131	-705.6174	946.8199	754.9306	-721.1196	984.9877	653.1013	-709.321	1096.1924	526.2969	-589.3031	1085.743	537.2435	-701.339	1109.7825	409.6383	-725.8992	1028.5347	400.6685	-723.6403	1043.4271	292.5597	-722.0724	1128.8989	95.995	-734.9495	1157.2719	109.9344	-637.1688	1073.656	43.889	-680.2175	1243.7087	67.8087	-751.9976	1279.8037	88.5202	-652.3273	911.4212	1454.2779	-378.6727	861.3851	1438.2122	-703.8403	830.2323	1487.7686	-538.7443	801.7069	1163.7114	-531.8887	968.3197	1396.2664	-551.0799	1000.5405	1253.8525	-542.564	765.5364	1389.1062	-441.2444
1882	18.81	970.9192	1063.0486	-399.4674	779.9346	1058.0149	-490.4787	773.0826	1050.4829	-535.7522	775.5241	1056.3817	-585.7237	948.9864	1058.8783	-687.8514	946.4401	722.3847	-388.2494	866.2658	721.2347	-370.5618	865.2335	612.3805	-389.3803	874.312	495.768	-524.2258	880.7161	494.2236	-407.2697	847.5812	326.8297	-409.584	819.4745	219.8572	-431.3972	768.962	345.7028	-392.4624	744.1586	235.7229	-407.4289	710.3796	84.5476	-422.7254	752.5563	94.6814	-517.3475	649.8045	46.8639	-481.5824	817.7159	38.3672	-385.7519	869.6529	37.2204	-472.1924	1022.15	781.6393	-712.0641	1056.6224	678.9651	-706.7091	944.9332	751.4426	-722.5829	981.7777	649.1822	-710.3185	1091.1174	521.9282	-589.9575	1081.8663	532.9298	-701.6522	1111.2762	407.59	-726.9518	1030.5388	394.201	-724.1346	1051.2682	287.0087	-722.3107	1148.4357	94.5034	-734.8795	1176.2358	110.2592	-637.4498	1096.5281	39.151	-679.8995	1264.6234	73.3376	-752.7741	1300.0869	96.1994	-653.4027	911.5277	1452.6258	-379.6718	861.5812	1436.4672	-704.9296	830.4193	1485.9222	-539.7464	802.4278	1161.9484	-533.4509	968.6226	1394.6716	-552.0405	1001.2489	1252.3512	-543.5718	765.8614	1387.07	-442.2712
1883	18.82	971.354	1061.1776	-400.7787	780.6576	1056.271	-492.4127	773.9924	1048.6958	-537.692	776.6555	1054.5573	-587.6597	950.1858	1056.813	-689.3443	943.8902	720.6857	-389.4491	863.8069	720.5503	-371.4306	861.4533	611.6623	-390.3206	868.5097	494.8815	-525.096	874.9767	493.1651	-408.1022	839.4452	326.089	-410.0692	809.7167	219.506	-431.8255	760.9514	346.2398	-393.1482	734.6825	236.5262	-407.9543	698.9109	85.5428	-422.9416	741.2184	95.172	-517.5352	637.9974	48.2651	-481.7029	805.8473	38.3977	-385.7743	857.7355	37.2019	-472.2467	1021.203	777.2877	-713.6531	1054.2599	674.0815	-707.7686	943.5209	747.9977	-724.2121	979.0544	645.3331	-711.4262	1086.2419	517.7239	-590.5235	1078.3709	528.7216	-701.9376	1112.3555	405.4992	-727.8546	1032.2557	388.1868	-724.4766	1058.1653	282.0371	-722.2639	1165.601	93.6067	-734.2734	1192.9077	111.2278	-637.2252	1116.9109	35.5739	-678.8942	1282.7843	78.9379	-753.0742	1317.6016	103.9876	-654.0457	911.6669	1450.8143	-380.764	861.8524	1434.6262	-706.1025	830.6408	1483.9493	-540.8326	803.2471	1160.0223	-535.1892	968.9855	1392.9749	-553.0814	1002.0458	1250.7423	-544.6404	766.2191	1384.8885	-443.4292
1884	18.83	971.7848	1059.1781	-402.1484	781.4718	1054.3452	-494.5927	774.9539	1046.8069	-539.8832	777.8985	1052.6123	-589.8562	951.593	1054.6849	-690.886	941.6263	718.8755	-390.7703	861.6486	719.6684	-372.497	858.0949	610.7521	-391.4376	863.4009	493.8196	-526.1067	869.8417	491.9716	-409.0698	831.704	325.3229	-410.6336	800.1628	219.2178	-432.2935	753.3554	346.8718	-393.9078	725.5092	237.4558	-408.5212	687.5192	86.7126	-423.1251	729.9719	95.823	-517.6799	626.2119	49.9453	-481.8081	793.9894	38.4438	-385.8048	845.8546	37.2109	-472.305	1020.8135	773.1848	-715.252	1052.5549	669.4894	-708.7596	942.6956	744.7264	-725.9288	977.0118	641.7113	-712.5554	1081.96	513.9167	-590.9958	1075.489	524.8172	-702.1837	1113.1147	403.3524	-728.5464	1033.7001	382.7401	-724.5848	1063.9849	277.639	-721.8699	1179.9602	93.0214	-733.1481	1206.9099	112.476	-636.4859	1134.2151	32.9338	-677.2174	1297.8215	84.0025	-752.8787	1332.0259	111.2279	-654.229	911.8317	1448.8503	-381.9534	862.2058	1432.7179	-707.3658	830.8957	1481.8744	-542.0157	804.1605	1157.953	-537.0912	969.4141	1391.1923	-554.2114	1002.938	1249.0444	-545.7735	766.6002	1382.5792	-444.7364
